<?xml version="1.0" encoding="UTF-8"?>
<svg width="989px" height="426px" viewBox="0 0 989 426" version="1.1" xmlns="http://www.w3.org/2000/svg" xmlns:xlink="http://www.w3.org/1999/xlink">
    <!-- Generator: Sketch 61.2 (89653) - https://sketch.com -->
    <title>SkillOverTime</title>
    <desc>Created with Sketch.</desc>
    <g id="SkillOverTime" stroke="none" stroke-width="1" fill="none" fill-rule="evenodd">
        <rect fill="#FFFFFF" x="0" y="0" width="989" height="426"></rect>
        <rect id="Rectangle" fill="#000000" x="243" y="35" width="8" height="391"></rect>
        <rect id="Rectangle-Copy" fill="#000000" transform="translate(561.000000, 422.000000) rotate(-270.000000) translate(-561.000000, -422.000000) " x="557" y="107" width="8" height="630"></rect>
        <text id="Time" font-family="Avenir-Black, Avenir" font-size="24" font-weight="700" letter-spacing="-0.576" fill="#000000">
            <tspan x="823" y="404">Time</tspan>
        </text>
        <text id="Productivity" transform="translate(287.000000, 100.500000) rotate(-90.000000) translate(-287.000000, -100.500000) " font-family="Avenir-Black, Avenir" font-size="24" font-weight="700" letter-spacing="-0.576" fill="#000000">
            <tspan x="221" y="108">Productivity</tspan>
        </text>
        <path d="M262.23886,434.387982 C264.694795,429.951973 266.840472,425.090235 268.675892,419.802768 C282.82735,392.988634 299.329108,373.544712 318.181168,361.471004 C337.033227,349.397295 359.964686,341.079827 386.975545,336.518601" id="Line" stroke="#FF0000" stroke-width="3" stroke-linecap="square" transform="translate(324.607202, 385.453291) rotate(-345.000000) translate(-324.607202, -385.453291) "></path>
        <path d="M404.945312,366.072506 C407.401248,361.636497 409.546925,356.774759 411.382345,351.487292 C425.533803,324.673158 442.035561,305.229236 460.88762,293.155528 C479.73968,281.081819 502.671139,272.764351 529.681998,268.203125" id="Line-Copy" stroke="#FF0000" stroke-width="3" stroke-linecap="square" transform="translate(467.313655, 317.137815) rotate(-350.000000) translate(-467.313655, -317.137815) "></path>
        <path d="M545,291.869381 C547.455935,287.433372 549.601613,282.571634 551.437032,277.284167 C565.58849,250.470033 582.090249,231.026111 600.942308,218.952403 C619.794367,206.878694 642.725826,198.561226 669.736685,194" id="Line-Copy-2" stroke="#FF0000" stroke-width="3" stroke-linecap="square" transform="translate(607.368343, 242.934690) rotate(-350.000000) translate(-607.368343, -242.934690) "></path>
        <path d="M685,216.869381 C687.455935,212.433372 689.601613,207.571634 691.437032,202.284167 C705.58849,175.470033 722.090249,156.026111 740.942308,143.952403 C759.794367,131.878694 782.725826,123.561226 809.736685,119" id="Line-Copy-2" stroke="#FF0000" stroke-width="3" stroke-linecap="square" transform="translate(747.368343, 167.934690) rotate(-350.000000) translate(-747.368343, -167.934690) "></path>
        <path d="M826,142.869381 C828.455935,138.433372 830.601613,133.571634 832.437032,128.284167 C846.58849,101.470033 863.090249,82.0261113 881.942308,69.9524025 C900.794367,57.8786937 923.725826,49.5612262 950.736685,45" id="Line-Copy-3" stroke="#FF0000" stroke-width="3" stroke-linecap="square" transform="translate(888.368343, 93.934690) rotate(-350.000000) translate(-888.368343, -93.934690) "></path>
        <text id="I’m-a-walking-bug" font-family="Avenir-Black, Avenir" font-size="21" font-weight="700" letter-spacing="-0.504" fill="#000000">
            <tspan x="58.777" y="412">I’m a walking bug</tspan>
        </text>
        <text id="I’m-not-actively-des" font-family="Avenir-Black, Avenir" font-size="21" font-weight="700" letter-spacing="-0.504" fill="#000000">
            <tspan x="81.247" y="269">I’m not actively </tspan>
            <tspan x="119.53" y="298">destructive</tspan>
        </text>
        <text id="I’m-occasionally-use" font-family="Avenir-Black, Avenir" font-size="21" font-weight="700" letter-spacing="-0.504" fill="#000000">
            <tspan x="17.092" y="359">I’m occasionally useful</tspan>
        </text>
        <text id="Cocky-enough-to-thin" font-family="Avenir-Black, Avenir" font-size="21" font-weight="700" letter-spacing="-0.504" fill="#000000">
            <tspan x="0.439" y="58">Cocky enough to think I </tspan>
            <tspan x="13.312" y="87">don’t need Medium to </tspan>
            <tspan x="116.443" y="116">get readers</tspan>
        </text>
        <text id="Cocky-enough-to-writ" font-family="Avenir-Black, Avenir" font-size="21" font-weight="700" letter-spacing="-0.504" fill="#000000">
            <tspan x="64.846" y="187">Cocky enough to </tspan>
            <tspan x="12.703" y="216">write a Medium article</tspan>
        </text>
        <text id="test-driven-developm" font-family="Avenir-Black, Avenir" font-size="18" font-weight="700" letter-spacing="-0.432" fill="#000000">
            <tspan x="544" y="296">test-driven development</tspan>
        </text>
        <text id="design-patterns" font-family="Avenir-Black, Avenir" font-size="18" font-weight="700" letter-spacing="-0.432" fill="#000000">
            <tspan x="681" y="218">design patterns</tspan>
        </text>
        <text id="basic-javascript" font-family="Avenir-Black, Avenir" font-size="18" font-weight="700" letter-spacing="-0.432" fill="#000000">
            <tspan x="287" y="412">basic javascript</tspan>
        </text>
        <text id="React" font-family="Avenir-Black, Avenir" font-size="18" font-weight="700" letter-spacing="-0.432" fill="#000000">
            <tspan x="412" y="365">React</tspan>
        </text>
        <text id="basic-Sketch" font-family="Avenir-Black, Avenir" font-size="18" font-weight="700" letter-spacing="-0.432" fill="#000000">
            <tspan x="787" y="154">basic Sketch</tspan>
        </text>
        <rect id="Rectangle" fill="#000000" x="231" y="79" width="33" height="3"></rect>
        <rect id="Rectangle-Copy-2" fill="#000000" x="231" y="195" width="33" height="3"></rect>
        <rect id="Rectangle-Copy-3" fill="#000000" x="231" y="267" width="33" height="3"></rect>
        <rect id="Rectangle-Copy-4" fill="#000000" x="231" y="352" width="33" height="3"></rect>
        <rect id="Rectangle" fill="#FFFFFF" x="849" y="0" width="140" height="109"></rect>
        <text id="today" font-family="Avenir-Black, Avenir" font-size="18" font-weight="700" letter-spacing="-0.432" fill="#000000">
            <tspan x="772" y="75">today</tspan>
        </text>
        <path id="Line-2" d="M819.316768,74.817046 L819.749861,75.0669072 L838.387,85.819 L840.386174,82.354524 L845.933093,90.7498612 L835.888671,90.1501943 L837.887,86.685 L819.250139,75.9330928 L818.817046,75.6832316 L819.316768,74.817046 Z" fill="#000000" fill-rule="nonzero"></path>
    </g>
</svg>